<svg xmlns="http://www.w3.org/2000/svg" viewBox="0 0 900 430">
<defs><linearGradient id="b" x1="0" x2="1"><stop stop-color="#0a79cf"/><stop offset="1" stop-color="#0870bf"/></linearGradient><linearGradient id="m" x1="0" y1="0" x2="1" y2="1"><stop stop-color="#f7f7f7"/><stop offset=".5" stop-color="#aeb5bd"/><stop offset="1" stop-color="#fff"/></linearGradient></defs>
<text x="450" y="118" text-anchor="middle" font-family="Arial,Helvetica,sans-serif" font-weight="900" font-size="108" fill="url(#b)">Valley</text>
<text x="450" y="218" text-anchor="middle" font-family="Arial,Helvetica,sans-serif" font-weight="900" font-size="108" fill="url(#b)">Aviation</text>
<path d="M90 335 Q240 270 370 305" fill="none" stroke="#7bc9f3" stroke-width="9" opacity=".7"/><path d="M810 335 Q660 270 530 305" fill="none" stroke="#7bc9f3" stroke-width="9" opacity=".7"/>
<circle cx="450" cy="323" r="91" fill="#fff" stroke="#0984d6" stroke-width="5"/><circle cx="450" cy="323" r="80" fill="#fff" stroke="#07172b" stroke-width="7"/>
<path id="top" d="M386 330 A68 68 0 0 1 514 330" fill="none"/><path id="bot" d="M514 319 A68 68 0 0 1 386 319" fill="none"/>
<text font-family="Georgia,serif" font-size="28" fill="#07172b" letter-spacing="4"><textPath href="#top" startOffset="50%" text-anchor="middle">VALLEY</textPath><textPath href="#bot" startOffset="50%" text-anchor="middle">AVIATION</textPath></text>
<circle cx="450" cy="323" r="34" fill="url(#m)" stroke="#5c6570" stroke-width="3"/><circle cx="450" cy="323" r="7" fill="#757d85"/>
<g transform="rotate(-14 450 323)"><path d="M447 317 C520 285 612 283 645 300 C607 317 525 332 455 328 Z" fill="#07172b"/><path d="M453 329 C380 361 288 363 255 346 C293 329 375 314 445 318 Z" fill="url(#m)" stroke="#6f7780" stroke-width="2"/></g>
</svg>